<?xml version="1.0" encoding="UTF-8" standalone="no"?>
<!-- Created with Inkscape (http://www.inkscape.org/) -->

<svg
   xmlns:dc="http://purl.org/dc/elements/1.1/"
   xmlns:cc="http://creativecommons.org/ns#"
   xmlns:rdf="http://www.w3.org/1999/02/22-rdf-syntax-ns#"
   xmlns:svg="http://www.w3.org/2000/svg"
   xmlns="http://www.w3.org/2000/svg"
   xmlns:sodipodi="http://sodipodi.sourceforge.net/DTD/sodipodi-0.dtd"
   xmlns:inkscape="http://www.inkscape.org/namespaces/inkscape"
   id="svg7824"
   version="1.1"
   inkscape:version="0.48.5 r10040"
   width="698.08295"
   height="656.57935"
   xml:space="preserve"
   sodipodi:docname="clipsie-right.svg"><metadata
     id="metadata7830"><rdf:RDF><cc:Work
         rdf:about=""><dc:format>image/svg+xml</dc:format><dc:type
           rdf:resource="http://purl.org/dc/dcmitype/StillImage" /><dc:title></dc:title></cc:Work></rdf:RDF></metadata><defs
     id="defs7828"><marker
       inkscape:stockid="Arrow1Sstart"
       orient="auto"
       refY="0"
       refX="0"
       id="Arrow1Sstart"
       style="overflow:visible"><path
         id="path3934"
         d="M 0,0 5,-5 -12.5,0 5,5 0,0 z"
         style="fill-rule:evenodd;stroke:#000000;stroke-width:1pt"
         transform="matrix(0.2,0,0,0.2,1.2,0)"
         inkscape:connector-curvature="0" /></marker><marker
       inkscape:stockid="TriangleInS"
       orient="auto"
       refY="0"
       refX="0"
       id="TriangleInS"
       style="overflow:visible"><path
         id="path4061"
         d="m 5.77,0 -8.65,5 0,-10 8.65,5 z"
         style="fill-rule:evenodd;stroke:#000000;stroke-width:1pt"
         transform="scale(-0.2,-0.2)"
         inkscape:connector-curvature="0" /></marker><marker
       inkscape:stockid="Arrow2Sstart"
       orient="auto"
       refY="0"
       refX="0"
       id="Arrow2Sstart"
       style="overflow:visible"><path
         id="path3952"
         style="fill-rule:evenodd;stroke-width:0.625;stroke-linejoin:round"
         d="M 8.7185878,4.0337352 -2.2072895,0.01601326 8.7185884,-4.0017078 c -1.7454984,2.3720609 -1.7354408,5.6174519 -6e-7,8.035443 z"
         transform="matrix(0.3,0,0,0.3,-0.69,0)"
         inkscape:connector-curvature="0" /></marker><marker
       inkscape:stockid="TriangleOutS"
       orient="auto"
       refY="0"
       refX="0"
       id="TriangleOutS"
       style="overflow:visible"><path
         id="path4070"
         d="m 5.77,0 -8.65,5 0,-10 8.65,5 z"
         style="fill-rule:evenodd;stroke:#000000;stroke-width:1pt"
         transform="scale(0.2,0.2)"
         inkscape:connector-curvature="0" /></marker><clipPath
       clipPathUnits="userSpaceOnUse"
       id="clipPath7844"><path
         d="m 2,350.263 359,0 0,-226 -359,0 0,226 z"
         id="path7846"
         inkscape:connector-curvature="0" /></clipPath><clipPath
       clipPathUnits="userSpaceOnUse"
       id="clipPath7850"><path
         d="M 360.285,349.599 329.086,160.002 2.688,124.798 l 9.597,216 348,8.801 z"
         id="path7852"
         inkscape:connector-curvature="0" /></clipPath><clipPath
       clipPathUnits="userSpaceOnUse"
       id="clipPath7858"><path
         d="m 16,141 611,0 0,193 -611,0 0,-193 z"
         id="path7860"
         inkscape:connector-curvature="0" /></clipPath><clipPath
       clipPathUnits="userSpaceOnUse"
       id="clipPath7876"><path
         d="m 315,525.263 446,0 0,-447 -446,0 0,447 z"
         id="path7878"
         inkscape:connector-curvature="0" /></clipPath><clipPath
       clipPathUnits="userSpaceOnUse"
       id="clipPath7882"><path
         d="m 315.199,441.599 38.403,-171.199 472,-192 -4.801,672 -505.602,-308.801 z"
         id="path7884"
         inkscape:connector-curvature="0" /></clipPath><clipPath
       clipPathUnits="userSpaceOnUse"
       id="clipPath7890"><path
         d="m 174,259 571,0 0,193 -571,0 0,-193 z"
         id="path7892"
         inkscape:connector-curvature="0" /></clipPath><clipPath
       clipPathUnits="userSpaceOnUse"
       id="clipPath3112"><path
         inkscape:connector-curvature="0"
         id="path3114"
         d="m 131.78019,378.43977 137.99309,0 0,-232.58964 -151.34726,0 104.60767,-270.48896 505.23277,387.27093 -540.84389,351.65981 z"
         style="fill:none;stroke:#000000;stroke-width:0.80000001px;stroke-linecap:butt;stroke-linejoin:miter;stroke-opacity:1"
         sodipodi:nodetypes="cccccccc" /></clipPath></defs><sodipodi:namedview
     pagecolor="#ffffff"
     bordercolor="#666666"
     borderopacity="1"
     objecttolerance="10"
     gridtolerance="10"
     guidetolerance="10"
     inkscape:pageopacity="0"
     inkscape:pageshadow="2"
     inkscape:window-width="1440"
     inkscape:window-height="851"
     id="namedview7826"
     showgrid="false"
     fit-margin-top="20"
     fit-margin-left="20"
     fit-margin-right="20"
     fit-margin-bottom="20"
     showguides="true"
     inkscape:guide-bbox="true"
     inkscape:zoom="1.016645"
     inkscape:cx="203.27638"
     inkscape:cy="353.56805"
     inkscape:window-x="0"
     inkscape:window-y="0"
     inkscape:window-maximized="1"
     inkscape:current-layer="g7832" /><g
     id="g7832"
     inkscape:groupmode="layer"
     inkscape:label="clipsie"
     transform="matrix(1.25,0,0,-1.25,13.330818,656.58057)"><path
       sodipodi:nodetypes="cccccccccsssccccccccccccccccccc"
       inkscape:connector-curvature="0"
       id="path3447"
       d="m 116.01035,509.26446 c -26.247196,-0.2638 -49.350879,-17.99975 -62.925004,-39.475 -28.156,-40.582 -37.771,-90.59 -44.275,-138.75 -7.933,-72.29 -2.589,-146.537 19.325,-215.975 11.394,-33.195 28.304,-66.634 57.3,-87.575 10.832,-7.086 23.604004,-11.756 36.725004,-11.475 28.36,0.789 51.732,21.447 65.525,44.7 18.79072,31.998072 30.1696,67.22785 36.725,103.525 l 71.05,0 c 10.56625,-0.14943 21.12513,4.1058 28.65,11.525 7.52485,7.41919 11.925,17.90769 11.925,28.475 0,10.56731 -4.40014,21.08081 -11.925,28.5 -7.52486,7.4192 -18.08376,11.64943 -28.65,11.5 l -63.425,0 c 0.0856,3.57834 0.14348,7.13276 0.175,10.7 0.0374,8.19738 -0.0969,16.41604 -0.4,24.65 l 141.6,0 0,-40 0,-17.3 15,8.65 138.4,80 14.975,8.65 -14.975,8.65 -138.4,80 -15,8.7 0,-17.35 0,-40 -150.875,0 c -7.45382,36.33197 -19.67945,71.52098 -38.325,103.75 -14.379,23.105 -37.177,44.275 -65.65,45.9 -0.853,0.0283 -1.70332,0.0335 -2.55,0.025 z"
       clip-path="none"
       style="fill:#00ff00;fill-opacity:1;fill-rule:nonzero;stroke:none" /><g
       id="g7888"
       transform="matrix(-1,0,0,1,686.02677,41.551452)" /><g
       id="g3427"><g
         clip-path="url(#clipPath3112)"
         transform="matrix(-1,0,0,1,387.78406,0)"
         id="g7834"><path
           inkscape:connector-curvature="0"
           id="path7836"
           style="fill:#000000;fill-opacity:1;fill-rule:nonzero;stroke:none"
           d="m 265.633,16.013 c -28.36,0.789 -51.746,21.45 -65.539,44.703 -34.274,58.364 -43.934,127.446 -44.524,194.235 -0.328,71.758 11.715,145.66 48,208.379 14.379,23.105 37.184,44.277 65.657,45.902 27.296,0.906 51.468,-17.277 65.48,-39.445 28.156,-40.582 37.766,-90.582 44.27,-138.742 7.933,-72.29 2.589,-146.555 -19.325,-215.993 -11.394,-33.195 -28.304,-66.629 -57.3,-87.57 -10.832,-7.086 -23.598,-11.75 -36.719,-11.469 z m -4.563,89.063 c 17.309,3.086 25.871,20.832 32.723,35.222 25.613,56.622 26.176,120.997 19.695,181.829 -4.55,32.671 -13.468,66.425 -35.699,91.73 -7.094,6.582 -19.242,7.566 -25.906,-0.125 -18.418,-15.641 -24.895,-40.094 -32.281,-62.062 -15.082,-55.536 -15.43,-114.942 -4.059,-171.172 5.703,-24.618 14.051,-50.051 31.371,-69.016 3.891,-3.437 8.754,-6.672 14.156,-6.406 z" /><path
           inkscape:connector-curvature="0"
           id="path7838"
           style="fill:#000000;fill-opacity:1;fill-rule:nonzero;stroke:none"
           d="M 103.035,101.47 359.836,332.588" /></g><g
         transform="matrix(-1,0,0,1,376.6556,-3.5486164)"
         id="g7840"><g
           clip-path="url(#clipPath7844)"
           id="g7842"><g
             clip-path="url(#clipPath7850)"
             id="g7848"><g
               transform="translate(0,-0.736694)"
               id="g7854"><g
                 id="g7856" /><g
                 id="g7862"><g
                   id="g7864"
                   clip-path="url(#clipPath7858)"><g
                     id="g7866"><path
                       sodipodi:nodetypes="cc"
                       inkscape:connector-curvature="0"
                       id="path7868"
                       style="fill:none;stroke:#000000;stroke-width:80;stroke-linecap:round;stroke-linejoin:miter;stroke-miterlimit:4;stroke-opacity:1;stroke-dasharray:none"
                       d="m 81.180864,208.54301 437.272136,0" /><path
                       inkscape:connector-curvature="0"
                       id="path7870"
                       style="fill:#000000;fill-opacity:1;fill-rule:evenodd;stroke:none"
                       d="M 374.078,141.023 626.195,261.422 356.141,333.039 C 403.145,280.254 410.148,202.68 374.078,141.023 z" /></g></g></g></g></g></g></g><path
         id="path8746"
         sodipodi:nodetypes="cc"
         inkscape:connector-curvature="0"
         d="m 429.4817,319.59784 -380.0028,0"
         style="fill:none;stroke:#000000;stroke-width:80;stroke-linecap:butt;stroke-linejoin:miter;stroke-miterlimit:4;stroke-opacity:1;stroke-dasharray:none;marker-start:url(#TriangleInS);marker-end:none" /></g><g
       style="fill:#00ff00"
       transform="matrix(-1,0,0,1,376.6556,-3.5486164)"
       id="g3451"><g
         style="fill:#00ff00"
         clip-path="none"
         id="g3453"><g
           transform="translate(0,-0.736694)"
           style="fill:#00ff00"
           id="g3459" /></g></g></g></svg>